<?xml version="1.0" encoding="utf-8"?>
<!-- Generator: Adobe Illustrator 16.0.0, SVG Export Plug-In . SVG Version: 6.00 Build 0)  -->
<!DOCTYPE svg PUBLIC "-//W3C//DTD SVG 1.1//EN" "http://www.w3.org/Graphics/SVG/1.1/DTD/svg11.dtd">
<svg version="1.1" id="Calque_1" focusable="false" xmlns="http://www.w3.org/2000/svg" xmlns:xlink="http://www.w3.org/1999/xlink"
	 x="0px" y="0px" width="960px" height="560px" viewBox="0 0 960 560" enable-background="new 0 0 960 560" xml:space="preserve">
<path fill="#FFFFFF" d="M739.656,26.906l-113.75-26.25c-12.359-2.844-25.047,3.609-30.078,15.203l-52.5,122.5
	c-4.594,10.719-1.531,23.297,7.547,30.625l66.281,54.25c-39.375,83.891-108.172,153.672-193.813,193.813l-54.25-66.281
	c-7.438-9.078-19.906-12.141-30.625-7.547l-122.5,52.5c-11.703,5.141-18.156,17.828-15.313,30.188l26.25,113.75
	C229.641,551.469,240.141,560,252.5,560C532.609,560,760,333.047,760,52.5C760,40.25,751.578,29.641,739.656,26.906z"/>
</svg>
