<?xml version="1.0" encoding="UTF-8" standalone="no"?>
<svg
   xmlns:dc="http://purl.org/dc/elements/1.1/"
   xmlns:cc="http://creativecommons.org/ns#"
   xmlns:rdf="http://www.w3.org/1999/02/22-rdf-syntax-ns#"
   xmlns:svg="http://www.w3.org/2000/svg"
   xmlns="http://www.w3.org/2000/svg"
   viewBox="0 0 132.13881 258.10388"
   height="258.10388"
   width="132.13881"
   xml:space="preserve"
   id="svg2"
   version="1.1"><metadata
     id="metadata8"><rdf:RDF><cc:Work
         rdf:about=""><dc:format>image/svg+xml</dc:format><dc:type
           rdf:resource="http://purl.org/dc/dcmitype/StillImage" /></cc:Work></rdf:RDF></metadata><defs
     id="defs6"><clipPath
       id="clipPath18"
       clipPathUnits="userSpaceOnUse"><path
         id="path16"
         d="M 0,792 H 612 V 0 H 0 Z" /></clipPath></defs><g
     transform="matrix(1.3333333,0,0,-1.3333333,-342.6201,703.99998)"
     id="g10"><g
       id="g12"><g
         clip-path="url(#clipPath18)"
         id="g14"><g
           transform="translate(315,528)"
           id="g20"><path
             id="path22"
             style="fill:#000000;fill-opacity:1;fill-rule:evenodd;stroke:none"
             d="m 0,0 c 4.668,-1.703 -1.859,-2.335 -2,-5 19.91,-3.756 25.622,-21.711 32,-39 -10.7,-2.26 -19.196,6.058 -28,9 -13.634,0.396 -24.868,-2.408 -34,3 0.65,8.65 -5.574,10.426 -4,20 5.641,10.359 29.703,2.297 36,12" /></g><g
           transform="translate(320,465)"
           id="g24"><path
             id="path26"
             style="fill:#000000;fill-opacity:1;fill-rule:evenodd;stroke:none"
             d="M 0,0 C 4.357,0.18 -1.192,4.753 3,4 3.649,0.351 2.326,-1.326 1,-3 c -9.929,4.492 -21.155,4.837 -31,0 -1.837,1.286 -4.4,4.481 -2,7 1.85,-0.15 0.614,-3.386 2,-4 8.171,7.351 21.979,7.928 30,0" /></g><g
           transform="translate(278,437)"
           id="g28"><path
             id="path30"
             style="fill:#000000;fill-opacity:1;fill-rule:evenodd;stroke:none"
             d="m 0,0 c -0.698,-4.365 2.887,-4.446 3,-8 h -19 c -1.438,9.438 7.792,8.208 16,8" /></g><g
           transform="translate(349,437)"
           id="g32"><path
             id="path34"
             style="fill:#000000;fill-opacity:1;fill-rule:evenodd;stroke:none"
             d="m 0,0 c 0.139,-3.528 2.861,-4.472 3,-8 h -20 c 1.33,7.003 7.178,9.489 17,8" /></g><g
           transform="translate(280,421)"
           id="g36"><path
             id="path38"
             style="fill:#000000;fill-opacity:1;fill-rule:evenodd;stroke:none"
             d="m 0,0 c 0.261,-2.928 -2.261,-3.072 -2,-6 16.608,3.356 36.069,10.143 53,2 2.995,0.658 -0.956,2.138 0,4 h 24 c -0.802,-3.469 1.489,-3.844 1,-7 h -98 c -2.6,12.267 14.244,5.089 22,7" /></g><g
           transform="translate(257,404)"
           id="g40"><path
             id="path42"
             style="fill:#000000;fill-opacity:1;fill-rule:evenodd;stroke:none"
             d="M 0,0 C -0.184,0.851 0.39,0.943 1,1 32.26,-0.309 69.547,3.625 99,-1 97.391,-9.548 85.116,-6 78,-6 54.286,-6 23.256,-6.806 1,-5 0.453,-3.547 2.168,0.168 0,0" /></g><g
           transform="translate(260,389)"
           id="g44"><path
             id="path46"
             style="fill:#000000;fill-opacity:1;fill-rule:evenodd;stroke:none"
             d="M 0,0 C 27.664,-0.638 68.727,1.29 93,-1 93.433,-10.553 80.311,-7 74,-7 51.612,-7 21.615,-7.801 1,-6 1.022,-3.645 -0.723,-3.056 0,0" /></g><g
           transform="translate(264,374)"
           id="g48"><path
             id="path50"
             style="fill:#000000;fill-opacity:1;fill-rule:evenodd;stroke:none"
             d="M 0,0 C 20.568,-0.841 63.03,1.418 85,-1 86.011,-10.519 75.236,-7.935 69,-8 48.642,-8.213 21.991,-7.84 2,-8 1.847,-4.819 -0.267,-3.601 0,0" /></g><g
           transform="translate(270,358)"
           id="g52"><path
             id="path54"
             style="fill:#000000;fill-opacity:1;fill-rule:evenodd;stroke:none"
             d="M 0,0 H 73 C 71.633,-12.546 54.356,-8 42,-8 H 4 C 2.526,-5.475 0.467,-3.533 0,0" /></g><g
           transform="translate(279,341)"
           id="g56"><path
             id="path58"
             style="fill:#000000;fill-opacity:1;fill-rule:evenodd;stroke:none"
             d="M 0,0 C 16.335,2.331 36.998,0.335 55,1 49.445,-12.445 21.335,-3.335 5,-6 3.215,-4.118 2.295,-1.371 0,0" /></g><g
           transform="translate(326,423)"
           id="g60"><path
             id="path62"
             style="fill:#ff0303;fill-opacity:1;fill-rule:evenodd;stroke:none"
             d="m 0,0 c -11.006,-1.998 -15.576,11.084 -21,18 1.466,-11.695 -8.456,-20.042 -20,-22 0.003,4.333 4.843,7.767 8,14 2.686,5.303 3.764,13.638 9,15 C -9.927,28.661 -4.812,11.087 0,0" /></g></g></g></g></svg>